<svg xmlns="http://www.w3.org/2000/svg" width="100%" height="100%" fill="none" viewBox="0 0 280 48"><path fill="currentColor" d="M36.208 48H28.09L13.373 25.563c-.864-1.311-1.461-2.3-1.793-2.963h-.1c.133 1.261.2 3.187.2 5.777V48H4.083V12.29h8.666l14.17 21.74c.647.98 1.245 1.95 1.792 2.913h.1c-.133-.83-.2-2.465-.2-4.905V12.29h7.596V48zm31.114 0H45.906V12.29H66.5v6.55H53.95v7.943h11.679v6.525h-11.68v8.168h13.373V48zm32.782-29.16H89.919V48h-8.068V18.84H71.716v-6.55h28.388v6.55zM188.181 48h-8.766l-2.54-7.944h-12.7L161.66 48h-8.716l12.999-35.71h9.538l12.7 35.71zm-13.148-14.12l-3.835-12.003c-.283-.896-.482-1.967-.598-3.212h-.199a13.623 13.623 0 01-.623 3.113l-3.885 12.102h9.14zM224.126 48h-9.239l-5.553-9.189a31.016 31.016 0 00-1.195-1.868 9.231 9.231 0 00-1.171-1.394 4.038 4.038 0 00-1.22-.897 2.921 2.921 0 00-1.369-.323h-2.167V48h-8.043V12.29h12.75c8.666 0 12.999 3.237 12.999 9.712 0 1.245-.191 2.399-.573 3.461a9.63 9.63 0 01-1.619 2.84 10.17 10.17 0 01-2.54 2.19 12.811 12.811 0 01-3.287 1.445v.1c.531.166 1.046.44 1.544.821.498.366.979.797 1.444 1.295.465.498.905 1.038 1.32 1.619.432.564.822 1.12 1.171 1.668L224.126 48zm-21.914-29.684v9.936h3.486c1.727 0 3.113-.498 4.159-1.494 1.063-1.012 1.594-2.266 1.594-3.76 0-3.121-1.868-4.682-5.603-4.682h-3.636zM258.701 48h-10.16l-10.409-15.514c-.199-.299-.515-.955-.946-1.967h-.125V48h-8.043V12.29h8.043v16.884h.125c.199-.465.531-1.13.996-1.992l9.861-14.892h9.588L245.18 29.323 258.701 48z"></path><path fill="#14b8a6" d="M147.131 48h-7.944V26.634c0-2.308.1-4.856.299-7.645h-.199c-.415 2.191-.789 3.768-1.121 4.731L129.799 48h-6.574l-8.517-24.03c-.232-.648-.606-2.308-1.12-4.981h-.225c.216 3.52.324 6.607.324 9.263V48h-7.246V12.29h11.778l7.297 21.167a29.845 29.845 0 011.27 5.105h.149c.448-1.976.922-3.694 1.42-5.155l7.296-21.117h11.48V48z"></path><path stroke="currentColor" d="M279.5 8c0 4.129-3.449 7.5-7.735 7.5-4.286 0-7.735-3.371-7.735-7.5s3.449-7.5 7.735-7.5c4.286 0 7.735 3.371 7.735 7.5z"></path><path fill="currentColor" d="M276.431 13h-1.9l-1.566-2.625a4.887 4.887 0 00-.417-.615 2.284 2.284 0 00-.41-.424 1.349 1.349 0 00-.451-.24 1.894 1.894 0 00-.554-.075h-.656V13h-1.62V3.197h3.226c.461 0 .884.055 1.272.164.387.11.724.276 1.011.5.288.218.511.494.67.826.164.329.246.714.246 1.156 0 .346-.052.665-.157.957-.1.287-.246.544-.437.772a2.635 2.635 0 01-.684.574c-.264.16-.563.283-.895.37v.027c.177.1.332.212.464.335.133.118.258.241.376.37.119.127.235.273.349.437.119.16.248.346.39.56L276.431 13zm-5.954-8.483v3.185h1.353c.251 0 .481-.039.691-.116a1.523 1.523 0 00.916-.868c.086-.21.13-.445.13-.704 0-.47-.148-.837-.445-1.1-.296-.265-.722-.397-1.278-.397h-1.367z"></path></svg>